/* XPM */
static char *_2f79038907949e7f1822454cb5526aeoVCzAqWDpHbqkCtz[] = {
/* columns rows colors chars-per-pixel */
"64 64 2 1 ",
"  c #09FF00",
". c white",
/* pixels */
"................................................................",
"...............         ........................................",
"..............  .......   ......................................",
".............. ..........  .....................................",
".............. ........... .....................................",
".............. ...........  ....................................",
".............. ............  ...................................",
".............. ............. ...................................",
".............  .............  ..................................",
"............. ............... ..................................",
"............. ...............  .................................",
"............. ................ .................................",
"............. ................ .................................",
"............. ................. ................................",
"............. ................. ................................",
"............. ................. ................................",
"............. ................. ................................",
"............. ................. ................................",
"............  ................. ................................",
"............ .................. ................................",
"............ .................. ................................",
"............ .................. ................................",
"............ .................. ................................",
"............ .................. ................................",
"........... ................... ................................",
"........... ................... ................................",
".......... .................... ................................",
".........  .................... ................................",
"........  ..................... ................................",
"........ ......................      ...........................",
"........ ............................      .....................",
"........ .................................    ..................",
"........ .....................................   ...............",
"........ .......................................   .............",
"........ .........................................   ...........",
"........ ...........................................  ..........",
"........ ............................................  .........",
"........ ........................................      .........",
"........ ....................................    ...... ........",
"........ ..............................................  .......",
"........ ............................................... .......",
"........ ......... ....... ............................. .......",
"........ ................................................ ......",
"........ ....................................             ......",
"........ ................................................ ......",
"........ ....... ......................................... .....",
"........ ....... ........... ............................. .....",
"........ ........  ......... ............................. .....",
"........ ..........   ..... .............................. .....",
"........ .............     ............................... .....",
"........ .......................................       ... .....",
"........ .............................................     .....",
"........ ................................................. .....",
"........ ................................................. .....",
"........ ................................................. .....",
"........ ................................................  .....",
"........ ................................................ ......",
"........                                                  ......",
"........................................................  ......",
"................................................................",
"................................................................",
"................................................................",
"................................................................",
"................................................................"
};
