/* XPM */
static char *_f2ed74c323e4971aa90a3dcc970b242VuDOTL3SDKpRD88m[] = {
/* columns rows colors chars-per-pixel */
"64 64 2 1 ",
"  c #003AFF",
". c white",
/* pixels */
"................................................................",
"................................................................",
"................................................................",
"................................................................",
"................................................................",
"........................................................  ......",
"........                                                  ......",
"........ ................................................ ......",
"........ ................................................  .....",
"........ ................................................. .....",
"........ ................................................. .....",
"........ ................................................. .....",
"........ .............................................     .....",
"........ .......................................       ... .....",
"........ ................................................. .....",
"........ ............. ................................... .....",
"........ ......... ....................................... .....",
"........ ................................................. .....",
"........ ................................................. .....",
"........ ................................................ ......",
"........ ............     ...................             ......",
"........ ........... .... ............................... ......",
"........ ..........  ................................... .......",
"........ .........  .................................... .......",
"........ ......... ....................................  .......",
"........ ....................................    ...... ........",
"........ ........................................      .........",
"........ ............................................  .........",
"........ ...........................................  ..........",
"........ .........................................   ...........",
"........ .......................................   .............",
"........ .....................................   ...............",
"........ .................................    ..................",
"........ ............................      .....................",
"........ ......................      ...........................",
"........  ..................... ................................",
".........  .................... ................................",
".......... .................... ................................",
"........... ................... ................................",
"........... ................... ................................",
"............ .................. ................................",
"............ .................. ................................",
"............ .................. ................................",
"............ .................. ................................",
"............ .................. ................................",
"............  ................. ................................",
"............. ................. ................................",
"............. ................. ................................",
"............. ................. ................................",
"............. ................. ................................",
"............. ................. ................................",
"............. ................ .................................",
"............. ................ .................................",
"............. ...............  .................................",
"............. ............... ..................................",
".............  .............  ..................................",
".............. ............. ...................................",
".............. ............  ...................................",
".............. ...........  ....................................",
".............. ........... .....................................",
".............. ..........  .....................................",
"..............  .......   ......................................",
"...............         ........................................",
"................................................................"
};
