/* XPM */
static char *result[] = {
/* columns rows colors chars-per-pixel */
"64 64 5 1 ",
"  c black",
". c #525151",
"X c #BCBCBC",
"o c #F3ECEC",
"O c white",
/* pixels */
"OOOOOOOOOOOOOOOOOOOOOOOOOOOOOOOOOOOOOOOOOOOOOOOOOOOOOOOOOOOOOOOO",
"OOOOOOOOOOOOOOOOOOOOOOOOOOOOOOOOOOOOOOOOOOOOOOOOOOOOOOOOOOOOOOOO",
"OOOOOOOOOOOOOOOOOOOOOOOOOOOOOOOOOOOOOOOOOOOOOOOOOOOOOOOOOOOOOOOO",
"OOOOOOOOOOOOOOOOOOOOOOOOOOOOOOOOOOOOOOOOOOOOOOOOOOOOOOOOOOOOOOOO",
"OOOOOOOOOOOOOOOOOOOOOOOOOOOOOOOOOOOOOOOOOOOOOOOOOOOOOOOOOOOOOOOO",
"OOOOOOOOOOOOOOOOOOOOOOOOOOOOOOOOOOOOOOOOOOOOOOOOOOOOOOOOOOOOOOOO",
"OOOOOOOOOOOOOOOOOOOOOOOOOOOOOOOOOOOOOOOOOOOOOOOOOOOOOOOOOOOOOOOO",
"OOOOOOOOOOOOOOOOOOOOOOOOOOOOOOOOOOOOOOOOOOOOOOOOOOOOOOOOOOOOOOOO",
"OOOOOOOOOOOOOOOOOOOOOOOOOOOOOOOOOOOOOOOOOOOOOOOOOOOOOOOOOOOOOOOO",
"OOOOOOOOOOOOOOOOOOOOOOOOOOOOOOOOOOOOOOOOOOOOOOOOOOOOOOOOOOOOOOOO",
"OOOOOOOOOOOOOOOOOOOOOOOOOOOOOOOOOOOOOOOOOOOOOOOOOOOOOOOOOOOOOOOO",
"OOOOOOOOOOOOOOOOOOOOOOOOOOOOOOOOOOOOOOOOOOOOOOOOOOOOOOOOOOOOOOOO",
"OOOOOOOOOOOOOOOOOOOOOOOOOOOOOOOOOOOOOOOOOOOOOOOOOOOOOOOOOOOOOOOO",
"OOOOOOOOOOOOOOOOOOOOOOOOOOOOOOOOOOOOOOOOOOOOOOOOOOOOOOOOOOOOOOOO",
"OOOOOOOOOOOOOOOOOOOOOOOOOOOOOOOOOOOOOOOOOOOOOOOOOOOOOOOOOOOOOOOO",
"OOOOOOOOOOOOOOOOOOOOOO....XXXX....XXXX....OOOOOOOOOOOOOOOOOOOOOO",
"OOOOOOOOOOOOOOOOOOOOOO....XXXX....XXXX....OOOOOOOOOOOOOOOOOOOOOO",
"OOOOOOOOOOOOOOOOOOOOOO....XXXX....XXXX....OOOOOOOOOOOOOOOOOOOOOO",
"OOOOOOOOOOOOOOOOOOOOOO....XXXX....XXXX....OOOOOOOOOOOOOOOOOOOOOO",
"OOOOOOOOOOOOOOOOOOOOOOXXXX....XXXX....XXXXOOOOOOOOOOOOOOOOOOOOOO",
"OOOOOOOOOOOOOOOOOOOOOOXXXX....XXXX....XXXXOOOOOOOOOOOOOOOOOOOOOO",
"OOOOOOOOOOOOOOOOOOOOOOXXXX....XXXX....XXXXOOOOOOOOOOOOOOOOOOOOOO",
"OOOOOOOOOOOOOOOOOOOOOOXXXX....XXXX....XXXXOOOOOOOOOOOOOOOOOOOOOO",
"OOOOOOOOOOOOOOOOOOOOOO....XXXX....XXXX....OOOOOOOOOOOOOOOOOOOOOO",
"OOOOOOOOOOOOOOOOOOOOOO....XXXX....XXXX....OOOOOOOOOOOOOOOOOOOOOO",
"OOOOOOOOOOOOOOOOOOOOOO....XXXX....XXXX....OOOOOOOOOOOOOOOOOOOOOO",
"OOOOOOOOOOOOOOOOOOOOOO....XXXX....XXXX....OOOOOOOOOOOOOOOOOOOOOO",
"OOOOOOOOOOOOOOOOOOOOOOXXXX....XXXX....XXXXOOOOOOOOOOOOOOOOOOOOOO",
"OOOOOOOOOOOOOOOOOOOOOOXXXX....XXXX....XXXXOOOOOOOOOOOOOOOOOOOOOO",
"OOOOOOOOOOOOOOOOOOOOOOXXXX....XXXX....XXXXOOOOOOOOOOOOOOOOOOOOOO",
"OOOOOOOOOOOOOOOOOOOOOOXXXX....XXXX....XXXXOOOOOOOOOOOOOOOOOOOOOO",
"OOOOOOOOOOOOOOOOOOOOOO....XXXX....XXXX....OOOOOOOOOOOOOOOOOOOOOO",
"OOOOOOOOOOOOOOOOOOOOOO....XXXX....XXXX....OOOOOOOOOOOOOOOOOOOOOO",
"OOOOOOOOOOOOOOOOOOOOOO....XXXX....XXXX....OOOOOOOOOOOOOOOOOOOOOO",
"OOOOOOOOOOOOOOOOOOOOOO....XXXX....XXXX....OOOOOOOOOOOOOOOOOOOOOO",
"OOOOOOOOOOOOOOOOOOOOOOXXXX....XXXX....XXXXOOOOOOOOOOOOOOOOOOOOOO",
"OOOOOOOOOOOOOOOOOOOOOOXXXX....XXXX....XXXXOOOOOOOOOOOOOOOOOOOOOO",
"OOOOOOOOOOOOOOOOOOOOOOXXXX....XXXX....XXXXOOOOOOOOOOOOOOOOOOOOOO",
"OOOOOOOOOOOOOOOOOOOOOOXXXX....XXXX....XXXXOOOOOOOOOOOOOOOOOOOOOO",
"OOOOOOOOOOOOOOOOOOOOOO ooooooooooooooo o      OOOOOOOOOOOOOOOOOO",
"OOOOOOOOOOOOOOOOOOOOOO ooooooooooooooo  ooooo   OOOOOOOOOOOOOOOO",
"OOOOOOOOOOOOOOOOOOOOOOO ooooooooooooooooooooooo  OOOOOOOOOOOOOOO",
"OOOOOOOOOOOOOOOOOOOO    oooooooooooooooooooooooo  OOOOOOOOOOOOOO",
"OOOOOOOOOOOOOOOOOO   o oooooooooooooooooooooooooo  OOOOOOOOOOOOO",
"OOOOOOOOOOOOOOOOO  ooooooooooooooooooooooooooooooo  OOOOOOOOOOOO",
"OOOOOOOOOOOOOOOO oooooooooooooo ooooooooooooooooooo  OOOOOOOOOOO",
"OOOOOOOOOOOOOOO ooooooooooooooo  ooooooooooooooooooo OOOOOOOOOOO",
"OOOOOOOOOOOOOO  ooooooooooooooo  ooooooooooooooooooo  OOOOOOOOOO",
"OOOOOOOOOOOOOO oooooooooooooooo  oooooooooooooooooooo OOOOOOOOOO",
"OOOOOOOOOOOOO  oooooooooooooooo  oooooooooooooooooooo OOOOOOOOOO",
"OOOOOOOOOOOOO oooooooooooooooooo oooooooooooooooooooo OOOOOOOOOO",
"OOOOOOOOOOOOO oooooooooooooooooo oooooooooooooooooooo OOOOOOOOOO",
"OOOOOOOOOOOOO oooooooooooooooooo oooooooooooooooooooo OOOOOOOOOO",
"OOOOOOOOOOOO  ooooooooooooooooo  oooooooooooooooooooo OOOOOOOOOO",
"OOOOOOOOOOOO oooooooooooooooooo  oooooooooooooooooooo OOOOOOOOOO",
"OOOOOOOOOOOO  ooooooooooooooooo   oooooooooooooooooo OOOOOOOOOOO",
"OOOOOOOOOOOOO  ooooooooooooooo  O oooooooooooooooo   OOOOOOOOOOO",
"OOOOOOOOOOOOOO  oooooooooooooo OOO ooooooooooooo   OOOOOOOOOOOOO",
"OOOOOOOOOOOOOOO   ooooooooooo  OOO  ooooooooo    OOOOOOOOOOOOOOO",
"OOOOOOOOOOOOOOOOO             OOOOOO          OOOOOOOOOOOOOOOOOO",
"OOOOOOOOOOOOOOOOOOOOOOOOOOOOOOOOOOOOOOOOOOOOOOOOOOOOOOOOOOOOOOOO",
"OOOOOOOOOOOOOOOOOOOOOOOOOOOOOOOOOOOOOOOOOOOOOOOOOOOOOOOOOOOOOOOO",
"OOOOOOOOOOOOOOOOOOOOOOOOOOOOOOOOOOOOOOOOOOOOOOOOOOOOOOOOOOOOOOOO",
"OOOOOOOOOOOOOOOOOOOOOOOOOOOOOOOOOOOOOOOOOOOOOOOOOOOOOOOOOOOOOOOO"
};
