/* XPM */
static char *ea38d71ec7e545ccd6d6725265d93628PtWcqreAAqAcpzEk[] = {
/* columns rows colors chars-per-pixel */
"64 64 2 1 ",
"  c black",
". c white",
/* pixels */
"................................................................",
"................................................................",
"................................................................",
"................................................................",
"................................................................",
"................................................................",
"................................................................",
"................................................................",
"................................................................",
".....................................   ........................",
".................................... ... .......................",
".................. ................. .... ......................",
".................. ................. ..... .....................",
".................. ......       .... ..... ............   ......",
".................. ..... .......  ... ... .........    .........",
".................. .... .......... .. .. .........   ...........",
"........... ....... ... .......... ..   ........... ............",
"........... ....... ... ........... .. ............ ............",
"...........  ...... ... ............ . ........... .............",
".......... . ...... ... ............ . ........... ...   .......",
".......... . ...... ... . .......... .. .......... .  ..........",
".......... . ...... ... . .......... .. .......... .............",
"......... .. ..... .....  .......... ..  ......... .............",
"......... ... .... ...... .......... ... ......... .............",
"......... ... .... ...... ......... .... ..........  ...........",
"........ .... ... ....... ......... .... ............     ......",
"........ ..... . ........ ........ ..... .......................",
"........ .....  ......... ........ ...... ......................",
"....... .................. ...... ..............................",
"....... .................. ...... ..............................",
"....... ...................      ...............................",
"...........................................  ...................",
"............................................ ...................",
"............................................. ..................",
".............  .............................. ..................",
".............. .............................. ..................",
"............... ...................... ....... .................",
"................ ............................. .................",
"................. ............................ .................",
"........... ..... ............................ .................",
"................. ............................ .................",
".................. ........................... .................",
".................. ............................ ................",
".................. ............................ ................",
".................. ............................ ................",
"................... ........................... ................",
"................... ........................... ................",
".................... ................ ......... ................",
"........... ........ .......................... ................",
".................... .......................... ................",
".................... .......................... ................",
".................... .......................... ................",
".................... ......................... .................",
".................... ........................ ..................",
"...................  ...........................................",
"................... ............................................",
"................................................................",
"................................................................",
"................................................................",
"................................................................",
"................................................................",
"................................................................",
"................................................................",
"................................................................"
};
